<svg xmlns="http://www.w3.org/2000/svg" viewBox="0 0 454.52 499.8"><defs><style>.cls-1{fill:#5f5f63;}</style></defs><g id="Layer_2" data-name="Layer 2"><g id="Capa_1" data-name="Capa 1"><path class="cls-1" d="M454.52,292.05s-62.85-4.23-125.06,22.06a362.91,362.91,0,0,0,33.42-45.6c51.42-83.72,56-174.38,56-174.38S340.15,139.23,288.7,223A354.2,354.2,0,0,0,269,260a394.85,394.85,0,0,0,5.75-65.72C274.78,87,227.25,0,227.25,0s-47.5,87-47.5,194.26A395.73,395.73,0,0,0,185.49,260a356,356,0,0,0-19.67-37C114.38,139.23,35.6,94.13,35.6,94.13s4.62,90.66,56.05,174.38a361.88,361.88,0,0,0,33.41,45.6C62.83,287.82,0,292.05,0,292.05S38,339.37,100.42,366c23.82,10.14,47.73,15.76,68.23,18.88a185.52,185.52,0,0,0-30.5,4.71c-45.45,11.11-77,38.91-77,38.91s42.1,9.77,87.56-1.35c29.47-7.22,52.93-21.35,65.89-30.45l-10.85,86.82a15.31,15.31,0,0,0,3.16,11.41,12.84,12.84,0,0,0,10,4.92h20.79a12.85,12.85,0,0,0,10-4.92,15.31,15.31,0,0,0,3.16-11.41l-10.86-86.81c13,9.1,36.43,23.22,65.88,30.44,45.46,11.12,87.56,1.35,87.56,1.35s-31.56-27.8-77-38.91a185.79,185.79,0,0,0-30.51-4.71c20.5-3.12,44.42-8.74,68.24-18.88C416.53,339.37,454.52,292.05,454.52,292.05Z"/></g></g></svg>